<?xml version="1.0" encoding="UTF-8" standalone="no"?>
<!-- Created with Inkscape (http://www.inkscape.org/) -->

<svg
   xmlns:dc="http://purl.org/dc/elements/1.1/"
   xmlns:cc="http://creativecommons.org/ns#"
   xmlns:rdf="http://www.w3.org/1999/02/22-rdf-syntax-ns#"
   xmlns:svg="http://www.w3.org/2000/svg"
   xmlns="http://www.w3.org/2000/svg"
   xmlns:sodipodi="http://sodipodi.sourceforge.net/DTD/sodipodi-0.dtd"
   xmlns:inkscape="http://www.inkscape.org/namespaces/inkscape"
   width="100mm"
   height="100mm"
   viewBox="0 0 100 100"
   version="1.1"
   id="svg8"
   inkscape:version="0.92.3 (2405546, 2018-03-11)"
   sodipodi:docname="drawing.svg">
  <defs
     id="defs2" />
  <sodipodi:namedview
     id="base"
     pagecolor="#ffffff"
     bordercolor="#666666"
     borderopacity="1.0"
     inkscape:pageopacity="0.0"
     inkscape:pageshadow="2"
     inkscape:zoom="1.08"
     inkscape:cx="242.25405"
     inkscape:cy="155.0878"
     inkscape:document-units="mm"
     inkscape:current-layer="layer1"
     showgrid="false"
     inkscape:measure-start="0,0"
     inkscape:measure-end="0,0"
     units="mm"
     width="100mm"
     inkscape:window-width="1920"
     inkscape:window-height="1017"
     inkscape:window-x="-8"
     inkscape:window-y="-8"
     inkscape:window-maximized="1" />
  <metadata
     id="metadata5">
    <rdf:RDF>
      <cc:Work
         rdf:about="">
        <dc:format>image/svg+xml</dc:format>
        <dc:type
           rdf:resource="http://purl.org/dc/dcmitype/StillImage" />
        <dc:title></dc:title>
      </cc:Work>
    </rdf:RDF>
  </metadata>
  <g
     inkscape:label="Layer 1"
     inkscape:groupmode="layer"
     id="layer1"
     transform="translate(0,-197)">
    <flowRoot
       xml:space="preserve"
       id="flowRoot16"
       style="font-style:normal;font-weight:normal;font-size:40px;line-height:1.25;font-family:sans-serif;letter-spacing:0px;word-spacing:0px;fill:#000000;fill-opacity:1;stroke:none"
       transform="scale(0.26458333)"><flowRegion
         id="flowRegion18"><rect
           id="rect20"
           width="20"
           height="108.57143"
           x="-1165.7142"
           y="-191.76602" /></flowRegion><flowPara
         id="flowPara22"></flowPara></flowRoot>    <flowRoot
       xml:space="preserve"
       id="flowRoot28"
       style="font-style:normal;font-weight:normal;font-size:40px;line-height:1.25;font-family:sans-serif;letter-spacing:0px;word-spacing:0px;fill:#000000;fill-opacity:1;stroke:none"
       transform="scale(0.26458333)"><flowRegion
         id="flowRegion30"><rect
           id="rect32"
           width="380"
           height="68.571426"
           x="217.14285"
           y="305.37683" /></flowRegion><flowPara
         id="flowPara34"></flowPara></flowRoot>    <path
       sodipodi:type="spiral"
       style="fill:none;fill-rule:evenodd;stroke:#000000;stroke-width:1.96500003;stroke-miterlimit:4;stroke-dasharray:none;stroke-opacity:0"
       id="path4654"
       sodipodi:cx="117.92857"
       sodipodi:cy="244.83928"
       sodipodi:expansion="1"
       sodipodi:revolution="3.04741"
       sodipodi:radius="239.02563"
       sodipodi:argument="-20.263077"
       sodipodi:t0="0"
       d="m 117.92857,244.83928 c 1.84789,-11.65231 16.61876,-3.25793 19.3669,3.0713 7.4473,17.15182 -9.74704,33.26582 -25.5095,35.66249 -28.195346,4.28709 -50.58573,-21.49293 -51.958088,-47.9477 -2.013991,-38.82345 33.330987,-68.23309 70.385908,-68.25368 49.38837,-0.0274 86.00881,45.19296 84.54927,92.8241 C 212.92638,320.13473 157.69888,364.04447 99.500755,361.04066 29.015023,357.40265 -22.224497,292.10049 -17.639707,223.34016 -12.23669,142.30849 63.179378,83.71534 142.499,89.904102 234.07664,97.049272 300.03872,182.60404 292.23065,272.48101 283.35862,374.60493 187.64847,447.94638 87.215542,438.50825 -25.455023,427.9201 -106.1833,322.0428 -95.107295,211.05494 -82.81083,87.837385 33.242207,-0.28323174 154.78421,12.436513 c 23.45991,2.455152 46.52488,8.462636 68.22176,17.712305" />
    <rect
       style="fill:#ffd700;stroke:#ffffff;stroke-width:0;stroke-miterlimit:4;stroke-dasharray:none;stroke-opacity:1;fill-opacity:1"
       id="rect6136"
       width="101.42175"
       height="102.29515"
       x="8.0424982e-009"
       y="196.8689" />
    <path
       sodipodi:type="spiral"
       style="fill:none;fill-rule:evenodd;stroke:#ffffff;stroke-width:10;stroke-miterlimit:4;stroke-dasharray:none;stroke-opacity:1"
       id="path6138"
       sodipodi:cx="-9.0345516"
       sodipodi:cy="180.84148"
       sodipodi:expansion="1"
       sodipodi:revolution="3.0003901"
       sodipodi:radius="113.26331"
       sodipodi:argument="-17.149788"
       sodipodi:t0="0"
       d="m -9.0345516,180.84148 c -0.7302862,5.63094 -7.9506994,1.7937 -9.3590014,-1.21379 -3.816413,-8.15009 4.236091,-16.13652 11.7865687,-17.50422 13.5060333,-2.44649 24.6288943,9.65099 25.6494383,22.35936 1.49769,18.65004 -15.1057673,33.28005 -32.93214,33.79465 -23.759752,0.68589 -41.993293,-20.5703 -41.939875,-43.50492 0.06722,-28.86089 26.038413,-50.73752 54.0777115,-50.08509 33.9593475,0.79016 59.4994645,31.50832 58.2303105,64.65049 -1.495653,39.05691 -36.97932,68.27252 -75.223282,66.37553 -44.154168,-2.19014 -77.052968,-42.45104 -74.520747,-85.79607 2.87727,-49.25137 47.923289,-85.838609 96.3688532,-82.665962 54.3486008,3.559229 94.6280308,53.395922 90.8111838,106.941642 -4.237423,59.44589 -58.868853,103.42028 -117.514425,98.9564 -0.09238,-0.007 -0.18476,-0.0142 -0.277127,-0.0214" />
  </g>
</svg>
